<svg width="126" height="34" viewBox="0 0 126 34" fill="none" xmlns="http://www.w3.org/2000/svg">
<path d="M36.216 6.832V10.576H30.216V8.608C30.216 8.032 30.024 7.552 29.64 7.168C29.256 6.784 28.792 6.592 28.248 6.592H8.808C8.264 6.592 7.784 6.784 7.368 7.168C6.984 7.552 6.792 8.032 6.792 8.608V26.032C6.792 26.576 6.984 27.04 7.368 27.424C7.784 27.808 8.264 28 8.808 28H28.248C28.792 28 29.256 27.808 29.64 27.424C30.024 27.04 30.216 26.576 30.216 26.032V22.144H19.368V16.672H36.216V27.76C36.216 29.488 35.608 30.96 34.392 32.176C33.176 33.392 31.704 34 29.976 34H7.08C5.352 34 3.88 33.392 2.664 32.176C1.448 30.96 0.84 29.488 0.84 27.76V6.832C0.84 5.136 1.448 3.68 2.664 2.464C3.88 1.216 5.352 0.591998 7.08 0.591998H29.976C31.704 0.591998 33.176 1.216 34.392 2.464C35.608 3.68 36.216 5.136 36.216 6.832ZM50.3981 34H43.9181V0.591998H50.3981V34ZM89.8984 17.824C89.8984 19.52 89.2904 20.976 88.0744 22.192C86.8584 23.408 85.3864 24.016 83.6584 24.016H64.5544V34H58.0744V0.591998H83.6584C85.3864 0.591998 86.8584 1.216 88.0744 2.464C89.2904 3.68 89.8984 5.136 89.8984 6.832V17.824ZM81.9304 18.064C82.4744 18.064 82.9384 17.872 83.3224 17.488C83.7064 17.072 83.8984 16.592 83.8984 16.048V8.608C83.8984 8.032 83.7064 7.552 83.3224 7.168C82.9384 6.784 82.4744 6.592 81.9304 6.592H64.5544V18.064H81.9304ZM97.59 0.591998H104.07V28H125.334V34H97.59V0.591998Z" fill="white" fill-opacity="0.97"/>
</svg>
